M48
; DRILL file {KiCad (6.0.1)} date Wed Apr 20 20:45:47 2022
; FORMAT={-:-/ absolute / inch / decimal}
; #@! TF.CreationDate,2022-04-20T20:45:47-06:00
; #@! TF.GenerationSoftware,Kicad,Pcbnew,(6.0.1)
; #@! TF.FileFunction,Plated,1,2,PTH
FMAT,2
INCH
; #@! TA.AperFunction,Plated,PTH,ViaDrill
T1C0.0400
; #@! TA.AperFunction,Plated,PTH,ComponentDrill
T2C0.0400
; #@! TA.AperFunction,Plated,PTH,ComponentDrill
T3C0.0500
; #@! TA.AperFunction,Plated,PTH,ComponentDrill
T4C0.0709
%
G90
G05
T1
X1.475Y-4.075
X1.6Y-2.45
X2.375Y-6.925
X3.375Y-2.2
X3.525Y-2.2
X3.525Y-2.45
X3.525Y-2.525
X3.675Y-2.2
X3.675Y-4.87
X3.675Y-4.93
X3.825Y-2.2
X4.15Y-2.2
X4.3Y-2.2
X4.625Y-2.2
X4.775Y-2.2
X4.9Y-9.85
X5.0Y-9.85
X5.1Y-9.85
X5.2Y-9.85
X5.3Y-9.85
X5.325Y-2.45
X5.325Y-2.525
X5.4Y-2.2
X5.4Y-9.85
X5.45Y-2.75
X5.5Y-2.8
X5.5Y-9.85
X5.55Y-2.2
X5.55Y-2.85
X5.6Y-2.9
X5.6Y-5.025
X5.6Y-9.2
X5.6Y-9.6
X5.6Y-9.85
X5.7Y-5.025
X5.7Y-9.15
X5.7Y-9.55
X5.7Y-9.85
X5.8Y-9.5
X5.8Y-9.85
X5.9Y-9.45
X5.9Y-9.85
X6.0Y-9.4
X6.0Y-9.85
X6.1Y-2.75
X6.1Y-9.35
X6.1Y-9.85
X6.15Y-2.7
X6.2Y-2.65
X6.2Y-9.3
X6.2Y-9.85
X6.275Y-3.125
X6.3Y-9.25
X6.3Y-9.85
X6.65Y-3.75
X6.7Y-3.425
X6.75Y-3.85
X6.8Y-3.325
X6.85Y-3.95
X6.875Y-3.25
X6.9Y-3.15
X7.0Y-9.15
X7.0Y-9.85
X7.15Y-3.75
X7.15Y-3.85
X7.15Y-3.95
X7.15Y-4.05
X7.15Y-4.15
X7.15Y-4.25
X7.15Y-4.35
X7.15Y-4.45
X7.15Y-5.15
X7.175Y-3.05
X7.2Y-5.1
X7.25Y-5.05
X7.3Y-5.0
X7.5Y-4.15
X7.5Y-4.6
X7.55Y-4.5
X7.6Y-4.925
X7.625Y-3.5
X7.625Y-3.65
X7.7Y-2.575
X7.7Y-9.1
X7.7Y-9.85
X7.75Y-3.7
X7.775Y-3.9
X7.775Y-4.0
X7.85Y-4.2
X7.925Y-2.7
X7.925Y-4.35
X8.2Y-9.05
X8.2Y-9.85
X8.25Y-3.15
X8.3Y-3.25
X8.425Y-4.2
X8.45Y-3.95
X8.475Y-4.05
X8.5Y-3.75
X8.5Y-4.475
X8.6Y-9.85
X8.7Y-9.85
X8.8Y-9.85
X8.9Y-9.85
X9.0Y-9.85
X9.075Y-9.05
X9.1Y-9.85
X9.15Y-5.675
X9.15Y-6.175
X9.2Y-5.775
X9.2Y-6.775
X9.2Y-8.35
X9.3Y-6.775
X9.4Y-6.725
X9.425Y-6.325
X9.525Y-5.575
X9.625Y-7.525
X9.7Y-6.125
X9.775Y-8.15
X10.15Y-6.175
X10.15Y-8.1
X10.25Y-5.775
X10.25Y-7.6
X10.25Y-7.925
X10.5Y-8.075
X10.5Y-8.55
X10.55Y-5.425
X10.7Y-7.4
X10.725Y-4.5
X10.75Y-7.35
X10.8Y-8.35
X10.85Y-5.575
X10.85Y-7.4
X10.85Y-8.3
X10.9Y-7.35
X10.9Y-8.25
X10.95Y-6.175
X10.95Y-8.2
X11.0Y-7.95
X11.05Y-7.9
X11.1Y-7.85
X11.15Y-7.8
X11.2Y-6.125
X11.2Y-8.45
X11.25Y-3.45
X11.25Y-6.025
X11.25Y-8.4
X11.3Y-3.35
X11.3Y-5.925
X11.3Y-8.15
X11.35Y-3.3
X11.35Y-5.825
X11.4Y-3.4
X11.4Y-5.725
X11.4Y-8.05
X11.4Y-8.15
X11.45Y-3.5
X11.45Y-5.625
X11.5Y-3.6
X11.5Y-5.525
X11.5Y-7.75
X11.5Y-8.0
X11.55Y-3.7
X11.55Y-5.425
X11.55Y-7.65
X11.6Y-3.0
X11.7Y-4.45
X11.75Y-4.1
X11.8Y-3.9
X11.85Y-4.2
X11.875Y-9.6
X11.9Y-4.3
X11.9Y-8.05
X11.9Y-8.4
X11.95Y-4.35
X12.0Y-4.25
X12.05Y-4.15
X12.1Y-4.05
X12.15Y-3.95
X12.2Y-3.85
X12.25Y-3.75
X12.3Y-3.65
X12.525Y-4.825
X12.525Y-4.875
X12.525Y-7.125
X12.525Y-7.2
T2
X1.625Y-5.1
X1.625Y-5.55
X1.7Y-6.2
X1.7Y-6.3
X1.7Y-6.4
X1.75Y-3.225
X1.75Y-4.3
X1.85Y-5.025
X1.85Y-6.1
X2.075Y-5.625
X2.075Y-6.075
X2.1Y-7.075
X2.15Y-6.2
X2.15Y-6.3
X2.15Y-6.4
X2.2Y-5.55
X2.25Y-4.05
X2.25Y-4.5
X2.3Y-5.45
X2.3Y-5.65
X2.3Y-5.9
X2.3Y-6.0
X2.3Y-6.1
X2.3Y-6.2
X2.3Y-6.3
X2.3Y-6.4
X2.3Y-6.5
X2.3Y-6.65
X2.4Y-5.65
X2.5Y-4.5
X2.5Y-4.6
X2.6Y-5.9
X2.6Y-6.0
X2.6Y-6.1
X2.6Y-6.2
X2.6Y-6.3
X2.6Y-6.4
X2.6Y-6.5
X2.725Y-5.95
X2.725Y-6.05
X2.725Y-6.3
X2.725Y-6.5
X2.75Y-6.65
X2.85Y-5.65
X3.0Y-5.75
X3.0Y-6.65
X3.0Y-6.75
X3.0Y-6.85
X3.025Y-5.15
X3.025Y-5.25
X3.025Y-5.35
X3.025Y-5.45
X3.175Y-5.95
X3.175Y-6.05
X3.175Y-6.3
X3.175Y-6.5
X3.175Y-7.075
X3.45Y-5.75
X3.45Y-6.25
X3.45Y-6.45
X3.45Y-6.65
X3.45Y-6.75
X3.45Y-6.85
X3.45Y-7.0
X3.45Y-7.45
X3.475Y-5.15
X3.475Y-5.25
X3.475Y-5.35
X3.475Y-5.45
X3.525Y-5.9
X3.525Y-6.0
X3.55Y-4.525
X3.55Y-4.975
X3.6Y-5.15
X3.6Y-5.25
X3.6Y-5.35
X3.6Y-5.45
X3.6Y-5.55
X3.6Y-5.65
X3.6Y-5.75
X3.6Y-6.65
X3.6Y-6.75
X3.6Y-6.85
X3.6Y-6.95
X3.6Y-7.1
X3.9Y-4.525
X3.9Y-4.975
X3.9Y-5.15
X3.9Y-5.25
X3.9Y-5.35
X3.9Y-5.45
X3.9Y-5.55
X3.9Y-5.65
X3.9Y-5.75
X3.9Y-6.65
X3.9Y-6.75
X3.9Y-6.85
X3.9Y-6.95
X3.975Y-5.9
X3.975Y-6.0
X4.025Y-5.05
X4.025Y-5.15
X4.025Y-5.25
X4.025Y-5.45
X4.025Y-5.55
X4.025Y-5.65
X4.025Y-5.75
X4.05Y-7.1
X4.2Y-6.25
X4.2Y-6.45
X4.275Y-3.65
X4.275Y-4.725
X4.475Y-5.05
X4.475Y-5.15
X4.475Y-5.25
X4.475Y-5.45
X4.475Y-5.55
X4.475Y-5.65
X4.475Y-5.75
X4.5Y-5.9
X4.5Y-6.0
X4.5Y-6.1
X4.5Y-6.2
X4.5Y-6.3
X4.5Y-6.4
X4.5Y-6.5
X4.5Y-6.85
X4.5Y-6.95
X4.5Y-7.05
X4.5Y-7.15
X4.5Y-7.275
X4.5Y-7.375
X4.5Y-7.475
X4.5Y-7.575
X4.5Y-7.675
X4.5Y-7.775
X4.625Y-3.65
X4.625Y-4.725
X4.95Y-3.525
X4.95Y-3.975
X4.95Y-4.075
X4.95Y-4.275
X4.95Y-4.725
X4.95Y-5.5
X4.95Y-5.9
X4.95Y-6.0
X4.95Y-6.1
X4.95Y-6.2
X4.95Y-6.3
X4.95Y-6.4
X4.95Y-6.5
X4.95Y-6.6
X4.95Y-6.7
X4.95Y-6.85
X4.95Y-6.95
X4.95Y-7.05
X4.95Y-7.15
X4.95Y-7.275
X4.95Y-7.375
X4.95Y-7.475
X4.95Y-7.575
X4.95Y-7.675
X4.95Y-7.775
X4.95Y-8.025
X4.95Y-8.125
X4.95Y-8.225
X5.025Y-7.0
X5.025Y-7.1
X5.05Y-3.525
X5.05Y-3.975
X5.05Y-4.175
X5.05Y-4.275
X5.05Y-4.725
X5.05Y-5.85
X5.05Y-5.95
X5.05Y-6.05
X5.05Y-6.15
X5.05Y-6.25
X5.05Y-6.35
X5.05Y-6.45
X5.05Y-7.275
X5.05Y-7.375
X5.05Y-7.475
X5.05Y-7.575
X5.05Y-7.675
X5.05Y-7.775
X5.05Y-7.875
X5.15Y-4.075
X5.15Y-4.475
X5.15Y-4.925
X5.225Y-3.275
X5.225Y-3.725
X5.25Y-4.625
X5.35Y-4.725
X5.35Y-5.85
X5.35Y-5.95
X5.35Y-6.05
X5.35Y-6.15
X5.35Y-6.25
X5.35Y-6.35
X5.35Y-6.45
X5.35Y-7.275
X5.35Y-7.375
X5.35Y-7.475
X5.35Y-7.575
X5.35Y-7.675
X5.35Y-7.775
X5.35Y-7.875
X5.4Y-3.125
X5.4Y-3.225
X5.4Y-3.325
X5.4Y-3.425
X5.4Y-3.525
X5.4Y-3.625
X5.4Y-3.725
X5.4Y-3.825
X5.4Y-3.925
X5.4Y-4.025
X5.4Y-4.125
X5.4Y-4.225
X5.4Y-4.325
X5.4Y-4.425
X5.4Y-5.5
X5.4Y-6.6
X5.4Y-6.7
X5.4Y-8.025
X5.4Y-8.125
X5.4Y-8.225
X5.45Y-4.625
X5.475Y-7.0
X5.475Y-7.1
X5.5Y-5.5
X5.5Y-5.95
X5.5Y-6.35
X5.5Y-6.8
X5.5Y-7.775
X5.5Y-8.225
X5.525Y-2.475
X5.525Y-2.575
X5.55Y-6.925
X5.55Y-7.375
X5.6Y-5.5
X5.6Y-5.95
X5.6Y-6.35
X5.6Y-6.8
X5.6Y-7.775
X5.6Y-8.225
X5.65Y-6.925
X5.65Y-7.375
X5.7Y-7.675
X5.7Y-8.125
X5.85Y-7.8
X5.85Y-8.25
X5.975Y-2.475
X5.975Y-2.575
X6.0Y-3.125
X6.0Y-3.225
X6.0Y-3.325
X6.0Y-3.425
X6.0Y-3.525
X6.0Y-3.625
X6.0Y-3.725
X6.0Y-3.825
X6.0Y-3.925
X6.0Y-4.025
X6.0Y-4.125
X6.0Y-4.225
X6.0Y-4.325
X6.0Y-4.425
X6.1Y-5.2
X6.1Y-5.8
X6.1Y-6.15
X6.1Y-6.75
X6.1Y-7.1
X6.1Y-7.7
X6.1Y-8.05
X6.1Y-8.65
X6.15Y-3.275
X6.15Y-3.725
X6.15Y-4.125
X6.15Y-4.575
X6.2Y-5.2
X6.2Y-5.8
X6.2Y-6.15
X6.2Y-6.75
X6.2Y-7.1
X6.2Y-7.7
X6.2Y-8.05
X6.2Y-8.65
X6.3Y-4.125
X6.3Y-4.575
X6.3Y-5.2
X6.3Y-5.8
X6.3Y-6.15
X6.3Y-6.75
X6.3Y-7.1
X6.3Y-7.7
X6.3Y-8.05
X6.3Y-8.65
X6.4Y-5.2
X6.4Y-5.8
X6.4Y-6.15
X6.4Y-6.75
X6.4Y-7.1
X6.4Y-7.7
X6.4Y-8.05
X6.4Y-8.65
X6.5Y-5.2
X6.5Y-5.8
X6.5Y-6.15
X6.5Y-6.75
X6.5Y-7.1
X6.5Y-7.7
X6.5Y-8.05
X6.5Y-8.65
X6.6Y-5.2
X6.6Y-5.8
X6.6Y-6.15
X6.6Y-6.75
X6.6Y-7.1
X6.6Y-7.7
X6.6Y-8.05
X6.6Y-8.65
X6.7Y-5.2
X6.7Y-5.8
X6.7Y-6.15
X6.7Y-6.75
X6.7Y-7.1
X6.7Y-7.7
X6.7Y-8.05
X6.7Y-8.65
X6.8Y-5.2
X6.8Y-5.8
X6.8Y-6.15
X6.8Y-6.75
X6.8Y-7.1
X6.8Y-7.7
X6.8Y-8.05
X6.8Y-8.65
X6.9Y-5.2
X6.9Y-5.8
X6.9Y-6.15
X6.9Y-6.75
X6.9Y-7.1
X6.9Y-7.7
X6.9Y-8.05
X6.9Y-8.65
X7.0Y-5.2
X7.0Y-5.8
X7.0Y-6.15
X7.0Y-6.75
X7.0Y-7.1
X7.0Y-7.7
X7.0Y-8.05
X7.0Y-8.65
X7.1Y-5.2
X7.1Y-5.8
X7.1Y-6.15
X7.1Y-6.75
X7.1Y-7.1
X7.1Y-7.7
X7.1Y-8.05
X7.1Y-8.65
X7.2Y-5.2
X7.2Y-5.8
X7.2Y-6.15
X7.2Y-6.75
X7.2Y-7.1
X7.2Y-7.7
X7.2Y-8.05
X7.2Y-8.65
X7.3Y-5.2
X7.3Y-5.8
X7.3Y-6.15
X7.3Y-6.75
X7.3Y-7.1
X7.3Y-7.7
X7.3Y-8.05
X7.3Y-8.65
X7.4Y-2.65
X7.4Y-2.75
X7.4Y-2.85
X7.4Y-2.95
X7.4Y-3.05
X7.4Y-3.15
X7.4Y-3.25
X7.4Y-3.35
X7.4Y-3.45
X7.4Y-3.55
X7.4Y-3.65
X7.4Y-3.75
X7.4Y-3.85
X7.4Y-3.95
X7.4Y-4.05
X7.4Y-4.15
X7.4Y-4.25
X7.4Y-4.35
X7.4Y-4.45
X7.4Y-4.55
X7.4Y-5.2
X7.4Y-5.8
X7.4Y-6.15
X7.4Y-6.75
X7.4Y-7.1
X7.4Y-7.7
X7.4Y-8.05
X7.4Y-8.65
X7.5Y-5.2
X7.5Y-5.8
X7.5Y-6.15
X7.5Y-6.75
X7.5Y-7.1
X7.5Y-7.7
X7.5Y-8.05
X7.5Y-8.65
X7.6Y-2.425
X7.6Y-5.2
X7.6Y-5.8
X7.6Y-6.15
X7.6Y-6.75
X7.6Y-7.1
X7.6Y-7.7
X7.6Y-8.05
X7.6Y-8.65
X7.7Y-5.2
X7.7Y-5.8
X7.7Y-5.95
X7.7Y-6.15
X7.7Y-6.75
X7.7Y-6.9
X7.7Y-7.1
X7.7Y-7.7
X7.7Y-7.85
X7.7Y-8.05
X7.7Y-8.65
X7.7Y-8.8
X7.8Y-5.2
X7.8Y-5.8
X7.8Y-6.15
X7.8Y-6.75
X7.8Y-7.1
X7.8Y-7.7
X7.8Y-8.05
X7.8Y-8.65
X7.9Y-5.2
X7.9Y-5.8
X7.9Y-6.15
X7.9Y-6.75
X7.9Y-7.1
X7.9Y-7.7
X7.9Y-8.05
X7.9Y-8.65
X8.0Y-2.65
X8.0Y-2.75
X8.0Y-2.85
X8.0Y-2.95
X8.0Y-3.05
X8.0Y-3.15
X8.0Y-3.25
X8.0Y-3.35
X8.0Y-3.45
X8.0Y-3.55
X8.0Y-3.65
X8.0Y-3.75
X8.0Y-3.85
X8.0Y-3.95
X8.0Y-4.05
X8.0Y-4.15
X8.0Y-4.25
X8.0Y-4.35
X8.0Y-4.45
X8.0Y-4.55
X8.0Y-5.2
X8.0Y-5.8
X8.0Y-6.15
X8.0Y-6.75
X8.0Y-7.1
X8.0Y-7.7
X8.0Y-8.05
X8.0Y-8.65
X8.05Y-2.425
X8.15Y-2.65
X8.15Y-3.1
X8.15Y-5.95
X8.15Y-6.9
X8.15Y-7.85
X8.15Y-8.8
X8.2Y-5.725
X8.25Y-5.95
X8.25Y-6.4
X8.275Y-2.5
X8.3Y-5.825
X8.3Y-8.8
X8.4Y-5.125
X8.4Y-5.575
X8.4Y-5.725
X8.425Y-5.975
X8.425Y-6.425
X8.45Y-8.65
X8.5Y-7.8
X8.5Y-7.9
X8.5Y-8.0
X8.5Y-8.1
X8.5Y-8.2
X8.5Y-8.3
X8.5Y-8.4
X8.5Y-8.5
X8.525Y-5.075
X8.525Y-6.975
X8.55Y-5.975
X8.6Y-3.25
X8.6Y-3.35
X8.6Y-3.45
X8.6Y-3.55
X8.6Y-3.65
X8.6Y-3.75
X8.6Y-3.85
X8.6Y-3.95
X8.6Y-4.05
X8.6Y-4.15
X8.6Y-4.25
X8.6Y-4.35
X8.6Y-4.55
X8.6Y-5.225
X8.6Y-5.325
X8.6Y-5.425
X8.6Y-5.525
X8.6Y-5.625
X8.6Y-5.725
X8.6Y-5.825
X8.6Y-6.125
X8.6Y-6.225
X8.6Y-6.325
X8.6Y-6.425
X8.6Y-6.525
X8.6Y-6.625
X8.6Y-6.725
X8.6Y-6.825
X8.725Y-2.5
X8.75Y-8.8
X8.8Y-7.8
X8.8Y-7.9
X8.8Y-8.0
X8.8Y-8.1
X8.8Y-8.2
X8.8Y-8.3
X8.8Y-8.4
X8.8Y-8.5
X8.9Y-5.225
X8.9Y-5.325
X8.9Y-5.425
X8.9Y-5.525
X8.9Y-5.625
X8.9Y-5.725
X8.9Y-5.825
X8.9Y-6.125
X8.9Y-6.225
X8.9Y-6.325
X8.9Y-6.425
X8.9Y-6.525
X8.9Y-6.625
X8.9Y-6.725
X8.9Y-6.825
X8.9Y-8.65
X8.975Y-5.075
X8.975Y-6.975
X9.0Y-5.975
X9.0Y-8.55
X9.05Y-4.55
X9.05Y-7.8
X9.05Y-7.9
X9.05Y-8.0
X9.05Y-8.1
X9.05Y-8.2
X9.05Y-8.3
X9.05Y-8.4
X9.2Y-3.25
X9.2Y-3.35
X9.2Y-3.45
X9.2Y-3.55
X9.2Y-3.65
X9.2Y-3.75
X9.2Y-3.85
X9.2Y-3.95
X9.2Y-4.05
X9.2Y-4.15
X9.2Y-4.25
X9.2Y-4.35
X9.35Y-7.8
X9.35Y-7.9
X9.35Y-8.0
X9.35Y-8.1
X9.35Y-8.2
X9.35Y-8.3
X9.35Y-8.4
X9.45Y-8.55
X9.575Y-8.2
X9.575Y-8.65
X9.6Y-3.25
X9.6Y-3.35
X9.6Y-3.45
X9.6Y-3.55
X9.6Y-3.65
X9.6Y-3.75
X9.6Y-3.85
X9.6Y-3.95
X9.6Y-4.05
X9.6Y-4.15
X9.6Y-4.25
X9.6Y-4.35
X9.6Y-4.45
X9.6Y-4.55
X9.6Y-4.75
X9.7Y-5.225
X9.7Y-5.325
X9.7Y-5.425
X9.7Y-5.525
X9.7Y-5.625
X9.7Y-5.725
X9.7Y-5.825
X9.7Y-5.975
X9.7Y-6.225
X9.7Y-6.325
X9.7Y-6.425
X9.7Y-6.525
X9.7Y-6.625
X9.7Y-6.725
X9.7Y-6.825
X9.7Y-6.975
X9.7Y-7.8
X9.7Y-7.9
X9.7Y-8.0
X9.7Y-8.1
X9.7Y-8.2
X9.7Y-8.3
X9.7Y-8.4
X9.7Y-8.55
X10.0Y-5.225
X10.0Y-5.325
X10.0Y-5.425
X10.0Y-5.525
X10.0Y-5.625
X10.0Y-5.725
X10.0Y-5.825
X10.0Y-6.225
X10.0Y-6.325
X10.0Y-6.425
X10.0Y-6.525
X10.0Y-6.625
X10.0Y-6.725
X10.0Y-6.825
X10.0Y-7.8
X10.0Y-7.9
X10.0Y-8.0
X10.0Y-8.1
X10.0Y-8.2
X10.0Y-8.3
X10.0Y-8.4
X10.05Y-4.75
X10.15Y-5.975
X10.15Y-6.975
X10.15Y-8.55
X10.2Y-3.25
X10.2Y-3.35
X10.2Y-3.45
X10.2Y-3.55
X10.2Y-3.65
X10.2Y-3.75
X10.2Y-3.85
X10.2Y-3.95
X10.2Y-4.05
X10.2Y-4.15
X10.2Y-4.25
X10.2Y-4.35
X10.2Y-4.45
X10.2Y-4.55
X10.275Y-8.625
X10.35Y-5.125
X10.35Y-5.225
X10.35Y-5.325
X10.35Y-5.425
X10.35Y-5.525
X10.35Y-5.625
X10.35Y-5.725
X10.35Y-5.825
X10.35Y-5.975
X10.35Y-6.125
X10.35Y-6.225
X10.35Y-6.325
X10.35Y-6.425
X10.35Y-6.525
X10.35Y-6.625
X10.35Y-6.725
X10.35Y-6.825
X10.35Y-6.975
X10.35Y-7.6
X10.35Y-7.7
X10.35Y-7.8
X10.35Y-7.9
X10.35Y-8.0
X10.35Y-8.1
X10.35Y-8.2
X10.35Y-8.3
X10.35Y-8.4
X10.35Y-8.5
X10.5Y-3.25
X10.5Y-3.35
X10.5Y-3.45
X10.5Y-3.55
X10.5Y-3.65
X10.5Y-3.75
X10.5Y-3.85
X10.5Y-3.95
X10.5Y-4.05
X10.5Y-4.15
X10.5Y-4.25
X10.5Y-4.35
X10.5Y-4.45
X10.5Y-4.55
X10.5Y-4.75
X10.65Y-5.125
X10.65Y-5.225
X10.65Y-5.325
X10.65Y-5.425
X10.65Y-5.525
X10.65Y-5.625
X10.65Y-5.725
X10.65Y-5.825
X10.65Y-6.125
X10.65Y-6.225
X10.65Y-6.325
X10.65Y-6.425
X10.65Y-6.525
X10.65Y-6.625
X10.65Y-6.725
X10.65Y-6.825
X10.65Y-7.6
X10.65Y-7.7
X10.65Y-7.8
X10.65Y-7.9
X10.65Y-8.0
X10.65Y-8.1
X10.65Y-8.2
X10.65Y-8.3
X10.65Y-8.4
X10.65Y-8.5
X10.725Y-8.625
X10.8Y-5.975
X10.8Y-6.975
X10.95Y-4.75
X11.075Y-5.125
X11.075Y-5.225
X11.075Y-5.325
X11.075Y-5.425
X11.075Y-5.525
X11.075Y-5.625
X11.075Y-5.725
X11.075Y-5.825
X11.075Y-5.925
X11.075Y-6.025
X11.075Y-6.125
X11.075Y-6.225
X11.075Y-6.325
X11.075Y-6.425
X11.075Y-6.525
X11.075Y-6.625
X11.075Y-6.725
X11.075Y-6.825
X11.075Y-6.925
X11.075Y-7.025
X11.1Y-3.25
X11.1Y-3.35
X11.1Y-3.45
X11.1Y-3.55
X11.1Y-3.65
X11.1Y-3.75
X11.1Y-3.85
X11.1Y-3.95
X11.1Y-4.05
X11.1Y-4.15
X11.1Y-4.25
X11.1Y-4.35
X11.1Y-4.45
X11.1Y-4.55
X11.675Y-5.125
X11.675Y-5.225
X11.675Y-5.325
X11.675Y-5.425
X11.675Y-5.525
X11.675Y-5.625
X11.675Y-5.725
X11.675Y-5.825
X11.675Y-5.925
X11.675Y-6.025
X11.675Y-6.125
X11.675Y-6.225
X11.675Y-6.325
X11.675Y-6.425
X11.675Y-6.525
X11.675Y-6.625
X11.675Y-6.725
X11.675Y-6.825
X11.675Y-6.925
X11.675Y-7.025
X11.75Y-7.6
X11.75Y-7.7
X11.75Y-7.8
X11.75Y-7.9
X11.75Y-8.0
X11.75Y-8.1
X11.75Y-8.2
X11.75Y-8.3
X11.75Y-8.4
X11.75Y-8.5
X11.75Y-8.65
X11.825Y-6.325
X11.825Y-6.825
X11.825Y-6.925
X12.05Y-7.6
X12.05Y-7.7
X12.05Y-7.8
X12.05Y-7.9
X12.05Y-8.0
X12.05Y-8.1
X12.05Y-8.2
X12.05Y-8.3
X12.05Y-8.4
X12.05Y-8.5
X12.2Y-8.65
X12.275Y-6.325
X12.275Y-6.825
X12.275Y-6.925
T3
X1.7Y-4.85
X1.9Y-4.85
X2.05Y-4.75
X2.15Y-4.95
X2.25Y-4.75
X2.25Y-5.15
X2.35Y-4.95
X2.45Y-5.15
X3.075Y-4.975
X3.275Y-4.975
X4.1Y-7.3
X4.1Y-7.5
X4.15Y-4.925
X4.35Y-4.925
X8.35Y-2.65
X8.35Y-2.85
X8.725Y-2.65
X8.725Y-2.85
X12.075Y-6.5
X12.075Y-6.675
X12.075Y-7.35
X12.275Y-6.5
X12.275Y-6.675
X12.275Y-7.35
T4
X2.5Y-4.175
X2.656Y-4.175
X2.812Y-4.175
X2.9679Y-4.175
X3.2797Y-4.175
X3.4356Y-4.175
T0
M30
