%TF.GenerationSoftware,KiCad,Pcbnew,(6.0.1)*%
%TF.CreationDate,2022-04-20T20:45:43-06:00*%
%TF.ProjectId,star_wars_arcade_sound_pcb,73746172-5f77-4617-9273-5f6172636164,rev?*%
%TF.SameCoordinates,Original*%
%TF.FileFunction,Profile,NP*%
%FSLAX46Y46*%
G04 Gerber Fmt 4.6, Leading zero omitted, Abs format (unit mm)*
G04 Created by KiCad (PCBNEW (6.0.1)) date 2022-04-20 20:45:43*
%MOMM*%
%LPD*%
G01*
G04 APERTURE LIST*
%TA.AperFunction,Profile*%
%ADD10C,0.025400*%
%TD*%
G04 APERTURE END LIST*
D10*
X233680000Y-252730000D02*
X233680000Y-259080000D01*
X183515000Y-55880000D02*
G75*
G03*
X184785000Y-54610000I1J1269999D01*
G01*
X323850000Y-46990000D02*
X184785000Y-46990000D01*
X234950000Y-251460000D02*
G75*
G03*
X233680000Y-252730000I-1J-1269999D01*
G01*
X31750000Y-273050000D02*
X31750000Y-46990000D01*
X233680000Y-259080000D02*
X121920000Y-259080000D01*
X100965000Y-251460000D02*
G75*
G03*
X99695000Y-252730000I-1J-1269999D01*
G01*
X323850000Y-273050000D02*
X323850000Y-46990000D01*
X161290000Y-54610000D02*
X161290000Y-46990000D01*
X99695000Y-273050000D02*
X99695000Y-252730000D01*
X171450000Y-46990000D02*
X161290000Y-46990000D01*
X171450000Y-54610000D02*
G75*
G03*
X172720000Y-55880000I1269999J-1D01*
G01*
X70485000Y-55880000D02*
X81280000Y-55880000D01*
X171450000Y-46990000D02*
X171450000Y-54610000D01*
X69215000Y-46990000D02*
X69215000Y-54610000D01*
X254635000Y-251460000D02*
X234950000Y-251460000D01*
X82550000Y-45720000D02*
X144145000Y-45720000D01*
X121920000Y-259080000D02*
X121920000Y-252730000D01*
X255905000Y-252730000D02*
G75*
G03*
X254635000Y-251460000I-1269999J1D01*
G01*
X184785000Y-54610000D02*
X184785000Y-46990000D01*
X100965000Y-251460000D02*
X120650000Y-251460000D01*
X160020000Y-55880000D02*
G75*
G03*
X161290000Y-54610000I1J1269999D01*
G01*
X121920000Y-252730000D02*
G75*
G03*
X120650000Y-251460000I-1269999J1D01*
G01*
X31750000Y-46990000D02*
X69215000Y-46990000D01*
X255905000Y-273050000D02*
X255905000Y-252730000D01*
X31750000Y-273050000D02*
X99695000Y-273050000D01*
X323850000Y-273050000D02*
X255905000Y-273050000D01*
X183515000Y-55880000D02*
X172720000Y-55880000D01*
X81280000Y-55880000D02*
G75*
G03*
X82550000Y-54610000I1J1269999D01*
G01*
X82550000Y-54610000D02*
X82550000Y-45720000D01*
X144145000Y-54610000D02*
G75*
G03*
X145415000Y-55880000I1269999J-1D01*
G01*
X69215000Y-54610000D02*
G75*
G03*
X70485000Y-55880000I1269999J-1D01*
G01*
X160020000Y-55880000D02*
X145415000Y-55880000D01*
X144145000Y-54610000D02*
X144145000Y-45720000D01*
M02*
